<svg xmlns="http://www.w3.org/2000/svg" xmlns:xlink="http://www.w3.org/1999/xlink" width="200" zoomAndPan="magnify" viewBox="0 0 150 44.999999" height="60" preserveAspectRatio="xMidYMid meet" version="1.0"><defs><g/><clipPath id="756187895a"><path d="M 6.714844 9 L 28 9 L 28 43.179688 L 6.714844 43.179688 Z M 6.714844 9 " clip-rule="nonzero"/></clipPath></defs><g fill="#264790" fill-opacity="1"><g transform="translate(30.559508, 23.976244)"><g><path d="M 0.59375 -8.21875 L 3.140625 -8.21875 C 3.910156 -8.21875 4.523438 -8.050781 4.984375 -7.71875 C 5.441406 -7.382812 5.671875 -6.851562 5.671875 -6.125 C 5.671875 -5.300781 5.328125 -4.710938 4.640625 -4.359375 C 5.816406 -4.148438 6.40625 -3.460938 6.40625 -2.296875 C 6.40625 -1.597656 6.164062 -1.039062 5.6875 -0.625 C 5.207031 -0.207031 4.550781 0 3.71875 0 L 0.59375 0 Z M 2.46875 -5 L 2.625 -5 C 3.039062 -5 3.347656 -5.070312 3.546875 -5.21875 C 3.753906 -5.363281 3.859375 -5.601562 3.859375 -5.9375 C 3.859375 -6.488281 3.445312 -6.765625 2.625 -6.765625 L 2.46875 -6.765625 Z M 2.46875 -1.4375 L 3.0625 -1.4375 C 3.96875 -1.4375 4.421875 -1.742188 4.421875 -2.359375 C 4.421875 -2.722656 4.304688 -2.984375 4.078125 -3.140625 C 3.859375 -3.304688 3.519531 -3.390625 3.0625 -3.390625 L 2.46875 -3.390625 Z M 2.46875 -1.4375 "/></g></g></g><g fill="#264790" fill-opacity="1"><g transform="translate(38.759932, 23.976244)"><g><path d="M 1.078125 -0.59375 C 0.515625 -1.101562 0.234375 -1.753906 0.234375 -2.546875 C 0.234375 -3.335938 0.523438 -3.984375 1.109375 -4.484375 C 1.703125 -4.992188 2.429688 -5.25 3.296875 -5.25 C 4.160156 -5.25 4.882812 -4.992188 5.46875 -4.484375 C 6.050781 -3.972656 6.34375 -3.328125 6.34375 -2.546875 C 6.34375 -1.765625 6.054688 -1.117188 5.484375 -0.609375 C 4.910156 -0.0976562 4.179688 0.15625 3.296875 0.15625 C 2.390625 0.15625 1.648438 -0.09375 1.078125 -0.59375 Z M 2.4375 -3.40625 C 2.207031 -3.1875 2.09375 -2.898438 2.09375 -2.546875 C 2.09375 -2.191406 2.203125 -1.90625 2.421875 -1.6875 C 2.640625 -1.46875 2.929688 -1.359375 3.296875 -1.359375 C 3.640625 -1.359375 3.921875 -1.46875 4.140625 -1.6875 C 4.367188 -1.914062 4.484375 -2.203125 4.484375 -2.546875 C 4.484375 -2.898438 4.367188 -3.1875 4.140625 -3.40625 C 3.910156 -3.632812 3.628906 -3.75 3.296875 -3.75 C 2.953125 -3.75 2.664062 -3.632812 2.4375 -3.40625 Z M 2.4375 -3.40625 "/></g></g></g><g fill="#264790" fill-opacity="1"><g transform="translate(46.910608, 23.976244)"><g><path d="M 1.078125 -0.59375 C 0.515625 -1.101562 0.234375 -1.753906 0.234375 -2.546875 C 0.234375 -3.335938 0.523438 -3.984375 1.109375 -4.484375 C 1.703125 -4.992188 2.429688 -5.25 3.296875 -5.25 C 4.160156 -5.25 4.882812 -4.992188 5.46875 -4.484375 C 6.050781 -3.972656 6.34375 -3.328125 6.34375 -2.546875 C 6.34375 -1.765625 6.054688 -1.117188 5.484375 -0.609375 C 4.910156 -0.0976562 4.179688 0.15625 3.296875 0.15625 C 2.390625 0.15625 1.648438 -0.09375 1.078125 -0.59375 Z M 2.4375 -3.40625 C 2.207031 -3.1875 2.09375 -2.898438 2.09375 -2.546875 C 2.09375 -2.191406 2.203125 -1.90625 2.421875 -1.6875 C 2.640625 -1.46875 2.929688 -1.359375 3.296875 -1.359375 C 3.640625 -1.359375 3.921875 -1.46875 4.140625 -1.6875 C 4.367188 -1.914062 4.484375 -2.203125 4.484375 -2.546875 C 4.484375 -2.898438 4.367188 -3.1875 4.140625 -3.40625 C 3.910156 -3.632812 3.628906 -3.75 3.296875 -3.75 C 2.953125 -3.75 2.664062 -3.632812 2.4375 -3.40625 Z M 2.4375 -3.40625 "/></g></g></g><g fill="#264790" fill-opacity="1"><g transform="translate(55.061284, 23.976244)"><g><path d="M 6.421875 -5.109375 L 4 -2.671875 L 6.671875 0 L 4.40625 0 L 2.359375 -2.046875 L 2.359375 0 L 0.59375 0 L 0.59375 -8.5625 L 2.359375 -8.5625 L 2.359375 -3.328125 L 4.140625 -5.109375 Z M 6.421875 -5.109375 "/></g></g></g><g fill="#264790" fill-opacity="1"><g transform="translate(63.062718, 23.976244)"><g><path d="M 0.59375 0 L 0.59375 -8.5625 L 2.359375 -8.5625 L 2.359375 0 Z M 0.59375 0 "/></g></g></g><g fill="#264790" fill-opacity="1"><g transform="translate(67.591877, 23.976244)"><g><path d="M 4.46875 -5.109375 L 6.5 -5.109375 L 2.484375 2.59375 L 0.453125 2.59375 L 2.21875 -0.796875 L -0.203125 -5.109375 L 1.828125 -5.109375 L 3.25 -2.484375 Z M 4.46875 -5.109375 "/></g></g></g><g fill="#264790" fill-opacity="1"><g transform="translate(30.559508, 35.976243)"><g/></g></g><g fill="#264790" fill-opacity="1"><g transform="translate(34.849886, 35.976243)"><g/></g></g><g fill="#264790" fill-opacity="1"><g transform="translate(39.149351, 35.976243)"><g><path d="M 3.625 -8.359375 C 4.070312 -8.359375 4.503906 -8.289062 4.921875 -8.15625 C 5.347656 -8.03125 5.664062 -7.90625 5.875 -7.78125 L 6.171875 -7.578125 L 5.421875 -6.09375 C 5.359375 -6.132812 5.269531 -6.1875 5.15625 -6.25 C 5.050781 -6.3125 4.851562 -6.394531 4.5625 -6.5 C 4.269531 -6.601562 4 -6.65625 3.75 -6.65625 C 3.4375 -6.65625 3.195312 -6.585938 3.03125 -6.453125 C 2.863281 -6.328125 2.78125 -6.148438 2.78125 -5.921875 C 2.78125 -5.804688 2.816406 -5.703125 2.890625 -5.609375 C 2.972656 -5.515625 3.109375 -5.410156 3.296875 -5.296875 C 3.492188 -5.191406 3.664062 -5.101562 3.8125 -5.03125 C 3.957031 -4.96875 4.179688 -4.867188 4.484375 -4.734375 C 5.015625 -4.515625 5.46875 -4.207031 5.84375 -3.8125 C 6.21875 -3.425781 6.40625 -2.988281 6.40625 -2.5 C 6.40625 -2.03125 6.320312 -1.617188 6.15625 -1.265625 C 5.988281 -0.910156 5.753906 -0.632812 5.453125 -0.4375 C 5.160156 -0.238281 4.832031 -0.09375 4.46875 0 C 4.113281 0.101562 3.726562 0.15625 3.3125 0.15625 C 2.957031 0.15625 2.601562 0.117188 2.25 0.046875 C 1.90625 -0.0234375 1.617188 -0.113281 1.390625 -0.21875 C 1.160156 -0.332031 0.953125 -0.441406 0.765625 -0.546875 C 0.578125 -0.660156 0.441406 -0.753906 0.359375 -0.828125 L 0.234375 -0.9375 L 1.171875 -2.515625 C 1.242188 -2.441406 1.347656 -2.351562 1.484375 -2.25 C 1.628906 -2.144531 1.878906 -2.003906 2.234375 -1.828125 C 2.585938 -1.660156 2.898438 -1.578125 3.171875 -1.578125 C 3.960938 -1.578125 4.359375 -1.847656 4.359375 -2.390625 C 4.359375 -2.503906 4.328125 -2.609375 4.265625 -2.703125 C 4.210938 -2.796875 4.113281 -2.890625 3.96875 -2.984375 C 3.832031 -3.085938 3.707031 -3.164062 3.59375 -3.21875 C 3.488281 -3.269531 3.3125 -3.351562 3.0625 -3.46875 C 2.8125 -3.59375 2.628906 -3.6875 2.515625 -3.75 C 2.015625 -3.988281 1.628906 -4.289062 1.359375 -4.65625 C 1.085938 -5.03125 0.953125 -5.429688 0.953125 -5.859375 C 0.953125 -6.585938 1.222656 -7.1875 1.765625 -7.65625 C 2.304688 -8.125 2.925781 -8.359375 3.625 -8.359375 Z M 3.625 -8.359375 "/></g></g></g><g fill="#264790" fill-opacity="1"><g transform="translate(47.409467, 35.976243)"><g><path d="M 5.84375 -4.46875 C 6.320312 -3.945312 6.5625 -3.304688 6.5625 -2.546875 C 6.5625 -1.796875 6.320312 -1.15625 5.84375 -0.625 C 5.375 -0.101562 4.769531 0.15625 4.03125 0.15625 C 3.351562 0.15625 2.796875 -0.0546875 2.359375 -0.484375 L 2.359375 2.59375 L 0.59375 2.59375 L 0.59375 -5.109375 L 2.34375 -5.109375 L 2.34375 -4.53125 L 2.359375 -4.53125 C 2.796875 -5.007812 3.351562 -5.25 4.03125 -5.25 C 4.769531 -5.25 5.375 -4.988281 5.84375 -4.46875 Z M 4.359375 -1.6875 C 4.585938 -1.914062 4.703125 -2.203125 4.703125 -2.546875 C 4.703125 -2.898438 4.59375 -3.1875 4.375 -3.40625 C 4.15625 -3.632812 3.863281 -3.75 3.5 -3.75 C 3.15625 -3.75 2.867188 -3.632812 2.640625 -3.40625 C 2.421875 -3.1875 2.3125 -2.90625 2.3125 -2.5625 C 2.3125 -2.207031 2.425781 -1.914062 2.65625 -1.6875 C 2.882812 -1.46875 3.164062 -1.359375 3.5 -1.359375 C 3.84375 -1.359375 4.128906 -1.46875 4.359375 -1.6875 Z M 4.359375 -1.6875 "/></g></g></g><g fill="#264790" fill-opacity="1"><g transform="translate(55.779023, 35.976243)"><g><path d="M 0.9375 -0.625 C 0.46875 -1.144531 0.234375 -1.785156 0.234375 -2.546875 C 0.234375 -3.304688 0.46875 -3.945312 0.9375 -4.46875 C 1.414062 -4.988281 2.023438 -5.25 2.765625 -5.25 C 3.441406 -5.25 4 -5.039062 4.4375 -4.625 L 4.4375 -5.109375 L 6.203125 -5.109375 L 6.203125 0 L 4.453125 0 L 4.453125 -0.578125 L 4.4375 -0.578125 C 4 -0.0859375 3.441406 0.15625 2.765625 0.15625 C 2.023438 0.15625 1.414062 -0.101562 0.9375 -0.625 Z M 2.4375 -3.40625 C 2.207031 -3.1875 2.09375 -2.898438 2.09375 -2.546875 C 2.09375 -2.191406 2.203125 -1.90625 2.421875 -1.6875 C 2.640625 -1.46875 2.929688 -1.359375 3.296875 -1.359375 C 3.640625 -1.359375 3.921875 -1.46875 4.140625 -1.6875 C 4.367188 -1.914062 4.484375 -2.203125 4.484375 -2.546875 C 4.484375 -2.898438 4.367188 -3.1875 4.140625 -3.40625 C 3.910156 -3.632812 3.628906 -3.75 3.296875 -3.75 C 2.953125 -3.75 2.664062 -3.632812 2.4375 -3.40625 Z M 2.4375 -3.40625 "/></g></g></g><g fill="#264790" fill-opacity="1"><g transform="translate(64.148579, 35.976243)"><g><path d="M 3.3125 -3.8125 C 2.976562 -3.8125 2.691406 -3.6875 2.453125 -3.4375 C 2.210938 -3.195312 2.09375 -2.90625 2.09375 -2.5625 C 2.09375 -2.207031 2.210938 -1.90625 2.453125 -1.65625 C 2.691406 -1.414062 2.976562 -1.296875 3.3125 -1.296875 C 3.46875 -1.296875 3.617188 -1.3125 3.765625 -1.34375 C 3.910156 -1.382812 4.015625 -1.425781 4.078125 -1.46875 L 4.171875 -1.53125 L 4.765625 -0.3125 C 4.722656 -0.28125 4.660156 -0.238281 4.578125 -0.1875 C 4.492188 -0.132812 4.300781 -0.0664062 4 0.015625 C 3.707031 0.109375 3.394531 0.15625 3.0625 0.15625 C 2.3125 0.15625 1.648438 -0.109375 1.078125 -0.640625 C 0.515625 -1.171875 0.234375 -1.800781 0.234375 -2.53125 C 0.234375 -3.28125 0.515625 -3.921875 1.078125 -4.453125 C 1.648438 -4.984375 2.3125 -5.25 3.0625 -5.25 C 3.394531 -5.25 3.703125 -5.207031 3.984375 -5.125 C 4.273438 -5.050781 4.476562 -4.972656 4.59375 -4.890625 L 4.765625 -4.78125 L 4.171875 -3.578125 C 3.953125 -3.734375 3.664062 -3.8125 3.3125 -3.8125 Z M 3.3125 -3.8125 "/></g></g></g><g fill="#264790" fill-opacity="1"><g transform="translate(70.607887, 35.976243)"><g><path d="M 5.765625 -2.3125 L 2.0625 -2.3125 C 2.0625 -1.945312 2.175781 -1.675781 2.40625 -1.5 C 2.632812 -1.332031 2.890625 -1.25 3.171875 -1.25 C 3.453125 -1.25 3.675781 -1.285156 3.84375 -1.359375 C 4.007812 -1.441406 4.195312 -1.597656 4.40625 -1.828125 L 5.6875 -1.1875 C 5.15625 -0.289062 4.269531 0.15625 3.03125 0.15625 C 2.257812 0.15625 1.597656 -0.109375 1.046875 -0.640625 C 0.503906 -1.171875 0.234375 -1.804688 0.234375 -2.546875 C 0.234375 -3.285156 0.503906 -3.921875 1.046875 -4.453125 C 1.597656 -4.984375 2.257812 -5.25 3.03125 -5.25 C 3.84375 -5.25 4.5 -5.015625 5 -4.546875 C 5.507812 -4.085938 5.765625 -3.421875 5.765625 -2.546875 C 5.765625 -2.429688 5.765625 -2.351562 5.765625 -2.3125 Z M 2.109375 -3.28125 L 4.046875 -3.28125 C 4.003906 -3.550781 3.898438 -3.753906 3.734375 -3.890625 C 3.566406 -4.035156 3.347656 -4.109375 3.078125 -4.109375 C 2.785156 -4.109375 2.550781 -4.03125 2.375 -3.875 C 2.207031 -3.726562 2.117188 -3.53125 2.109375 -3.28125 Z M 2.109375 -3.28125 "/></g></g></g><g fill="#264790" fill-opacity="1"><g transform="translate(78.184505, 35.976243)"><g/></g></g><g fill="#264790" fill-opacity="1"><g transform="translate(82.474883, 35.976243)"><g/></g></g><g fill="#264790" fill-opacity="1"><g transform="translate(86.765261, 35.976243)"><g/></g></g><g fill="#264790" fill-opacity="1"><g transform="translate(91.05564, 35.976243)"><g/></g></g><g fill="#264790" fill-opacity="1"><g transform="translate(95.346018, 35.976243)"><g/></g></g><g fill="#264790" fill-opacity="1"><g transform="translate(99.636396, 35.976243)"><g/></g></g><g fill="#264790" fill-opacity="1"><g transform="translate(103.926775, 35.976243)"><g/></g></g><g fill="#264790" fill-opacity="1"><g transform="translate(108.217153, 35.976243)"><g/></g></g><g fill="#264790" fill-opacity="1"><g transform="translate(112.507531, 35.976243)"><g/></g></g><g fill="#264790" fill-opacity="1"><g transform="translate(116.79791, 35.976243)"><g/></g></g><g fill="#264790" fill-opacity="1"><g transform="translate(121.088288, 35.976243)"><g/></g></g><path fill="#44a6d9" d="M 41.609375 7.636719 L 42.65625 10.097656 L 45 10.097656 L 43.300781 11.753906 L 43.703125 14.089844 L 41.609375 12.984375 L 39.507812 14.089844 L 39.910156 11.753906 L 38.214844 10.097656 L 40.558594 10.097656 L 41.609375 7.636719 " fill-opacity="1" fill-rule="nonzero"/><path fill="#264790" d="M 34.03125 0.960938 L 34.738281 2.621094 L 36.320312 2.621094 L 35.175781 3.738281 L 35.445312 5.308594 L 34.03125 4.566406 L 32.621094 5.308594 L 32.886719 3.738281 L 31.746094 2.621094 L 33.324219 2.621094 L 34.03125 0.960938 " fill-opacity="1" fill-rule="nonzero"/><path fill="#44a6d9" d="M 29.253906 13.429688 L 29.71875 14.519531 L 30.753906 14.519531 L 30.003906 15.25 L 30.183594 16.28125 L 29.253906 15.792969 L 28.328125 16.28125 L 28.503906 15.25 L 27.753906 14.519531 L 28.792969 14.519531 L 29.253906 13.429688 " fill-opacity="1" fill-rule="nonzero"/><g clip-path="url(#756187895a)"><path fill="#44a6d9" d="M 9.457031 23.886719 C 7.953125 32.691406 13.542969 41.070312 22.078125 43.179688 C 21.664062 43.140625 21.242188 43.085938 20.824219 43.011719 C 11.597656 41.441406 5.390625 32.683594 6.964844 23.460938 C 8.535156 14.234375 17.289062 8.027344 26.515625 9.597656 C 26.933594 9.671875 27.347656 9.757812 27.753906 9.855469 C 19.003906 9.023438 10.957031 15.078125 9.457031 23.886719 " fill-opacity="1" fill-rule="evenodd"/></g><path fill="#264790" d="M 35.074219 36.953125 C 21.121094 44.894531 7.355469 25.472656 19.46875 14.9375 C 19.078125 15.164062 18.695312 15.402344 18.324219 15.667969 C 12.214844 20 10.773438 28.464844 15.101562 34.570312 C 19.433594 40.679688 27.898438 42.121094 34.003906 37.789062 C 34.378906 37.527344 34.734375 37.246094 35.074219 36.953125 " fill-opacity="1" fill-rule="evenodd"/><path fill="#264790" d="M 24.796875 4.976562 L 25.640625 7.011719 C 24.976562 6.941406 24.3125 6.90625 23.652344 6.90625 C 19.125 6.90625 14.714844 8.515625 11.222656 11.429688 C 10.0625 12.398438 9.03125 13.492188 8.136719 14.6875 L 7.257812 12.554688 L 7.148438 12.289062 L 6.292969 12.230469 L 3.503906 12.03125 L 1.519531 11.886719 L 1.441406 11.882812 L 1.441406 17.792969 C 1.644531 17.910156 1.785156 18.132812 1.785156 18.382812 C 1.785156 18.597656 1.683594 18.792969 1.527344 18.917969 C 1.5 18.941406 1.472656 18.960938 1.441406 18.976562 L 1.441406 19.625 L 2.160156 21.066406 L 0 21.066406 L 0.707031 19.652344 L 0.707031 19.015625 C 0.503906 18.898438 0.363281 18.679688 0.363281 18.421875 C 0.363281 18.183594 0.484375 17.976562 0.671875 17.851562 C 0.683594 17.839844 0.695312 17.832031 0.707031 17.824219 C 0.722656 17.8125 0.738281 17.800781 0.753906 17.792969 L 0.753906 11.835938 L 12.621094 0.546875 L 25.976562 0.214844 L 28.996094 0.136719 L 24.796875 4.976562 " fill-opacity="1" fill-rule="evenodd"/></svg>